<svg width="28" height="26" viewBox="0 0 28 26" fill="none" xmlns="http://www.w3.org/2000/svg">
<g opacity="0.5">
<path opacity="0.4" fill-rule="evenodd" clip-rule="evenodd" d="M5.91064 22.5886C5.91064 21.7486 6.59064 21.0686 7.43064 21.0686C8.26064 21.0686 8.94064 21.7486 8.94064 22.5886C8.94064 23.4186 8.26064 24.0986 7.43064 24.0986C6.59064 24.0986 5.91064 23.4186 5.91064 22.5886ZM17.1606 22.5886C17.1606 21.7486 17.8406 21.0686 18.6806 21.0686C19.5106 21.0686 20.1906 21.7486 20.1906 22.5886C20.1906 23.4186 19.5106 24.0986 18.6806 24.0986C17.8406 24.0986 17.1606 23.4186 17.1606 22.5886Z" fill="url(#paint0_linear_192_11)"/>
<path fill-rule="evenodd" clip-rule="evenodd" d="M20.1907 8.34909C20.8007 8.34909 21.2007 8.55909 21.6007 9.01909C22.0007 9.47909 22.0707 10.1391 21.9807 10.7381L21.0307 17.2981C20.8507 18.5591 19.7707 19.4881 18.5007 19.4881H7.59074C6.26074 19.4881 5.16074 18.4681 5.05074 17.1491L4.13074 6.24809L2.62074 5.98809C2.22074 5.91809 1.94074 5.52809 2.01074 5.12809C2.08074 4.71809 2.47074 4.44809 2.88074 4.50809L5.26574 4.86809C5.60574 4.92909 5.85574 5.20809 5.88574 5.54809L6.07574 7.78809C6.10574 8.10909 6.36574 8.34909 6.68574 8.34909H20.1907ZM14.1307 13.5481H16.9007C17.3207 13.5481 17.6507 13.2081 17.6507 12.7981C17.6507 12.3781 17.3207 12.0481 16.9007 12.0481H14.1307C13.7107 12.0481 13.3807 12.3781 13.3807 12.7981C13.3807 13.2081 13.7107 13.5481 14.1307 13.5481Z" fill="url(#paint1_linear_192_11)"/>
</g>
<circle cx="21.5" cy="6.5" r="6" fill="#FF4B4B" stroke="white"/>
<path d="M19.729 10H21.205L23.77 4.42V3.34H19.108V4.519H22.276L19.729 10Z" fill="white"/>
<defs>
<linearGradient id="paint0_linear_192_11" x1="5.91064" y1="20.8826" x2="16.9209" y2="28.9221" gradientUnits="userSpaceOnUse">
<stop stop-color="#53E88B"/>
<stop offset="1" stop-color="#15BE77"/>
</linearGradient>
<linearGradient id="paint1_linear_192_11" x1="2" y1="3.57942" x2="24.6895" y2="8.27392" gradientUnits="userSpaceOnUse">
<stop stop-color="#53E88B"/>
<stop offset="1" stop-color="#15BE77"/>
</linearGradient>
</defs>
</svg>
