<svg width="18" height="18" viewBox="0 0 18 18" fill="none" xmlns="http://www.w3.org/2000/svg">
<path opacity="0.4" d="M16.9925 15.9531H11.2982C10.7426 15.9531 10.2908 16.4121 10.2908 16.9765C10.2908 17.5419 10.7426 17.9999 11.2982 17.9999H16.9925C17.548 17.9999 17.9999 17.5419 17.9999 16.9765C17.9999 16.4121 17.548 15.9531 16.9925 15.9531" fill="url(#paint0_linear_192_2443)"/>
<path d="M7.30902 3.9041L12.7049 8.26419C12.835 8.36846 12.8573 8.5598 12.7557 8.6931L6.35874 17.0284C5.95662 17.5434 5.36402 17.8347 4.72908 17.8454L1.23696 17.8884C1.05071 17.8906 0.887748 17.7616 0.845419 17.5767L0.0517547 14.126C-0.0858138 13.4918 0.0517547 12.836 0.453878 12.3308L6.88256 3.95569C6.98627 3.82132 7.1778 3.79767 7.30902 3.9041" fill="url(#paint1_linear_192_2443)"/>
<path opacity="0.4" d="M15.1205 5.66544L14.0803 6.96401C13.9755 7.09623 13.7872 7.11773 13.657 7.01238C12.3924 5.98901 9.1543 3.36285 8.25587 2.63509C8.12465 2.52759 8.10666 2.33625 8.21248 2.20295L9.21567 0.957057C10.1257 -0.214663 11.7131 -0.322161 12.9935 0.699064L14.4644 1.87078C15.0676 2.34377 15.4698 2.96726 15.6073 3.62299C15.7661 4.3443 15.5967 5.0527 15.1205 5.66544" fill="url(#paint2_linear_192_2443)"/>
<defs>
<linearGradient id="paint0_linear_192_2443" x1="10.2908" y1="15.8274" x2="17.0888" y2="19.7946" gradientUnits="userSpaceOnUse">
<stop stop-color="#53E88B"/>
<stop offset="1" stop-color="#15BE77"/>
</linearGradient>
<linearGradient id="paint1_linear_192_2443" x1="-1.81785e-08" y1="2.97462" x2="14.8571" y2="5.07473" gradientUnits="userSpaceOnUse">
<stop stop-color="#53E88B"/>
<stop offset="1" stop-color="#15BE77"/>
</linearGradient>
<linearGradient id="paint2_linear_192_2443" x1="8.1438" y1="-0.434688" x2="16.8004" y2="0.990314" gradientUnits="userSpaceOnUse">
<stop stop-color="#53E88B"/>
<stop offset="1" stop-color="#15BE77"/>
</linearGradient>
</defs>
</svg>
