<svg width="22" height="22" viewBox="0 0 18 22" fill="none" xmlns="http://www.w3.org/2000/svg">
<path fill-rule="evenodd" clip-rule="evenodd" d="M0 8.80704C0 3.93659 4.06999 0 8.99306 0C13.93 0 18 3.93659 18 8.80704C18 11.2613 17.1074 13.5398 15.6383 15.4711C14.0176 17.6014 12.02 19.4575 9.7714 20.9143C9.25678 21.251 8.79233 21.2764 8.22754 20.9143C5.9662 19.4575 3.96857 17.6014 2.36171 15.4711C0.891511 13.5398 0 11.2613 0 8.80704ZM6.0293 9.08129C6.0293 10.7129 7.36069 11.9962 8.99318 11.9962C10.6267 11.9962 11.971 10.7129 11.971 9.08129C11.971 7.4624 10.6267 6.11667 8.99318 6.11667C7.36069 6.11667 6.0293 7.4624 6.0293 9.08129Z" fill="url(#paint0_linear_193_134)"/>
<defs>
<linearGradient id="paint0_linear_193_134" x1="-2.55249e-08" y1="-1.30031" x2="20.9154" y2="1.45414" gradientUnits="userSpaceOnUse">
<stop stop-color="#53E88B"/>
<stop offset="1" stop-color="#15BE77"/>
</linearGradient>
</defs>
</svg>
