<svg width="16" height="20" viewBox="0 0 16 20" fill="none" xmlns="http://www.w3.org/2000/svg">
<path d="M15.2409 15.8249L15.2409 15.8242L14.4524 5.69575C14.4524 5.6957 14.4524 5.69564 14.4524 5.69559C14.3937 4.91674 13.7474 4.30075 12.9706 4.30075H11.659C11.5672 2.33087 9.96554 0.75 8.00004 0.75C6.03455 0.75 4.43292 2.33087 4.34113 4.30075H3.02951C2.25296 4.30075 1.60648 4.91642 1.54784 5.69408C1.54783 5.69419 1.54782 5.6943 1.54782 5.69441L0.759096 15.8256L0.759048 15.8262C0.692906 16.7052 0.991702 17.5806 1.58066 18.2288C2.1698 18.8773 3.00552 19.25 3.87494 19.25H12.1251C12.9945 19.25 13.8302 18.8773 14.4194 18.2288L14.2344 18.0607L14.4194 18.2288C15.0084 17.5806 15.3071 16.7052 15.2409 15.8249ZM3.0743 5.85508H4.33698V6.90358C4.33698 7.32822 4.67593 7.68075 5.1041 7.68075C5.53226 7.68075 5.87122 7.32822 5.87122 6.90358V5.85508H10.1289V6.90358C10.1289 7.32822 10.4678 7.68075 10.896 7.68075C11.3242 7.68075 11.6631 7.32822 11.6631 6.90358V5.85508H12.9258L13.7112 15.9443C13.7112 15.9444 13.7113 15.9445 13.7113 15.9446C13.7457 16.4037 13.5962 16.8397 13.2905 17.1762C12.985 17.5125 12.5723 17.6957 12.1251 17.6957H3.87497C3.42775 17.6957 3.0151 17.5125 2.70953 17.1762C2.40382 16.8397 2.2544 16.4037 2.28878 15.9461C2.28879 15.946 2.2888 15.9459 2.28881 15.9458L3.0743 5.85508ZM5.87832 4.30075C5.96767 3.18106 6.8894 2.30434 8.00004 2.30434C9.11068 2.30434 10.0324 3.18109 10.1218 4.30075H5.87832Z" fill="#3FDA85" stroke="#3FDA85" stroke-width="0.5"/>
</svg>
