<svg width="30" height="30" viewBox="0 0 30 30" fill="none" xmlns="http://www.w3.org/2000/svg">
<path d="M15.0002 0.00708008C8.70867 0.00708008 3.57715 5.1386 3.57715 11.4302C3.57715 13.9256 4.36793 16.2981 5.86184 18.2839L14.2972 29.6485C14.4201 29.8241 14.7541 29.9999 15.0002 29.9999C15.2639 29.9999 15.5803 29.8066 15.7032 29.6484C15.7382 29.5956 24.2265 18.1609 24.2969 18.0554C24.3145 18.0554 24.3145 18.0554 24.3145 18.038C25.6853 16.1048 26.4233 13.8201 26.4233 11.4302C26.4233 5.13866 21.2918 0.00708008 15.0002 0.00708008ZM15.0002 17.581C11.6086 17.581 8.84936 14.8219 8.84936 11.4302C8.84936 8.03841 11.6086 5.27929 15.0002 5.27929C18.3919 5.27929 21.1511 8.03841 21.1511 11.4302C21.1511 14.8219 18.3919 17.581 15.0002 17.581Z" fill="#068246"/>
<path d="M15 0V5.27221C18.3916 5.27221 21.1509 8.03133 21.1509 11.4231C21.1509 14.8148 18.3916 17.574 15 17.574V29.9929C15.2637 29.9929 15.5801 29.7996 15.703 29.6413C15.738 29.5886 24.2263 18.1538 24.2967 18.0483C24.3142 18.0483 24.3142 18.0483 24.3142 18.0309C25.685 16.0977 26.423 13.8131 26.423 11.4231C26.4231 5.13152 21.2916 0 15 0Z" fill="#068246"/>
</svg>
